Coordinates
version=1
nRows=15
nColumns=46
inDegrees=yes

Units are S.I. units (second, meters, Newtons, ...)
Angles are in degrees.

endheader
time	pelvis_tilt	pelvis_list	pelvis_rotation	pelvis_tx	pelvis_ty	pelvis_tz	bb_angle	bb_tx	bb_ty	bb_tz	hip_flexion_r	hip_adduction_r	hip_rotation_r	knee_angle_r	knee_angle_r_beta	ankle_angle_r	subtalar_angle_r	mtp_angle_r	crank_angle_r	hip_flexion_l	hip_adduction_l	hip_rotation_l	knee_angle_l	knee_angle_l_beta	ankle_angle_l	subtalar_angle_l	mtp_angle_l	crank_angle_l	lumbar_extension	lumbar_bending	lumbar_rotation	arm_flex_r	arm_add_r	arm_rot_r	elbow_flex_r	pro_sup_r	wrist_flex_r	wrist_dev_r	arm_flex_l	arm_add_l	arm_rot_l	elbow_flex_l	pro_sup_l	wrist_flex_l	wrist_dev_l
      5.00500000	    -31.74616939	     11.48721940	      7.04664900	      0.35155070	      1.09190134	     -0.21395186	      0.00000000	      0.50000000	      0.00000000	      0.25000000	     34.93180399	    -18.04839626	     -3.83676218	     23.58426486	      0.41162307	    -39.41472390	     -5.77153404	      0.00000000	      0.00000000	     84.63499158	      6.75028857	     -4.70622170	    103.68881297	      1.80971118	      6.80466162	    -12.32384112	      0.00000000	      0.00000000	    -47.86991999	     -3.34186754	    -16.58516772	     43.05676686	    -12.65760226	     26.20063566	     85.18969181	     51.78729782	      0.00000000	      0.00000000	     37.00581654	    -30.32306426	     19.23992879	     88.04805088	     52.64811757	      0.00000000	      0.00000000
      5.01000000	    -31.88023486	     11.30458899	      7.18272058	      0.35050826	      1.09396949	     -0.21413479	      0.00000000	      0.50000000	      0.00000000	      0.25000000	     35.41380043	    -17.70881437	     -2.08211978	     25.35270533	      0.44248818	    -39.33617275	     -6.55941419	      0.00000000	      0.00000000	     84.38059831	      6.60919637	     -4.83325241	    101.91191158	      1.77869840	      7.56836058	    -12.40548616	      0.00000000	      0.00000000	    -48.01291766	     -2.91250910	    -16.87458707	     43.67695158	    -12.29272915	     26.49705035	     84.84400127	     51.76919209	      0.00000000	      0.00000000	     36.95154611	    -30.69229915	     18.85793338	     88.34237360	     52.66023468	      0.00000000	      0.00000000
      5.01500000	    -31.91866682	     10.99152327	      7.28417366	      0.34970559	      1.09598259	     -0.21427741	      0.00000000	      0.50000000	      0.00000000	      0.25000000	     35.88119845	    -17.22935918	     -0.63271047	     27.26203664	      0.47581230	    -39.25113823	     -7.26352095	      0.00000000	      0.00000000	     83.90205633	      6.47179276	     -4.78770598	    100.01784890	      1.74564077	      8.28813918	    -12.57380657	      0.00000000	      0.00000000	    -48.14941788	     -2.15361515	    -18.62287090	     45.89747477	    -10.29369415	     28.61972924	     81.95599239	     51.66620934	      0.00000000	      0.00000000	     34.15150047	    -32.44877801	     15.60846194	     90.91686521	     52.80884932	      0.00000000	      0.00000000
      5.02000000	    -31.83907175	     10.59808374	      7.40156660	      0.34914051	      1.09817184	     -0.21455982	      0.00000000	      0.50000000	      0.00000000	      0.25000000	     36.32159791	    -16.74153702	      0.53440157	     29.35121406	      0.51227532	    -39.13452991	     -7.74079777	      0.00000000	      0.00000000	     83.18792125	      6.26587842	     -4.78658080	     97.97307827	      1.70995279	      8.86059647	    -12.75710456	      0.00000000	      0.00000000	    -48.48667613	     -1.48366070	    -18.51093503	     46.30098631	    -10.15536885	     28.57032803	     82.06443083	     51.67997531	      0.00000000	      0.00000000	     34.28906444	    -32.45034640	     15.44618863	     90.94680435	     52.79532138	      0.00000000	      0.00000000
      5.02500000	    -31.89003744	     10.41630271	      7.32009053	      0.34852310	      1.10003173	     -0.21452298	      0.00000000	      0.50000000	      0.00000000	      0.25000000	     37.10936338	    -16.28482070	      2.00239150	     31.59676546	      0.55146759	    -39.07922966	     -8.51921806	      0.00000000	      0.00000000	     82.44449025	      5.89038618	     -5.06561026	     95.74746177	      1.67110846	      9.30448151	    -12.86711663	      0.00000000	      0.00000000	    -48.66996090	     -1.18403515	    -18.54218740	     46.60679225	     -9.93174866	     28.65574975	     82.07944386	     51.70320155	      0.00000000	      0.00000000	     34.29528029	    -32.56831736	     15.05142691	     91.07838382	     52.77801462	      0.00000000	      0.00000000
      5.03000000	    -31.77896377	     10.01964806	      7.25570821	      0.34799867	      1.10184359	     -0.21482867	      0.00000000	      0.50000000	      0.00000000	      0.25000000	     37.78054911	    -15.68542232	      3.05449446	     33.93537431	      0.59228401	    -39.07762695	     -8.68116927	      0.00000000	      0.00000000	     81.51426965	      5.53987780	     -5.10692583	     93.49605219	      1.63181395	      9.69003964	    -12.90385308	      0.00000000	      0.00000000	    -49.00610224	     -0.57031628	    -18.36823843	     47.07387179	     -9.69813091	     28.63900161	     82.08292778	     51.70580594	      0.00000000	      0.00000000	     34.23794938	    -32.62369140	     14.72811517	     91.21643858	     52.76951099	      0.00000000	      0.00000000
      5.03500000	    -31.63550569	      9.65367293	      7.26696635	      0.34753149	      1.10360257	     -0.21532892	      0.00000000	      0.50000000	      0.00000000	      0.25000000	     38.45108767	    -15.20045805	      3.80267777	     36.28438514	      0.63328199	    -39.01453078	     -9.05781688	      0.00000000	      0.00000000	     80.45644974	      5.12022192	     -5.40205633	     91.13894172	      1.59067461	      9.95291341	    -12.85426058	      0.00000000	      0.00000000	    -49.34279814	      0.06568303	    -18.27459826	     47.49714560	     -9.48282179	     28.67137886	     82.10139923	     51.71457425	      0.00000000	      0.00000000	     34.12962713	    -32.65666847	     14.37973764	     91.36132678	     52.76040044	      0.00000000	      0.00000000
      5.04000000	    -31.41826714	      9.17484404	      7.12807273	      0.34726385	      1.10501655	     -0.21541222	      0.00000000	      0.50000000	      0.00000000	      0.25000000	     39.08734496	    -14.47907404	      4.47643238	     38.64442929	      0.67447253	    -38.96905826	     -9.41818453	      0.00000000	      0.00000000	     79.23746158	      4.75085789	     -5.24800184	     88.74693492	      1.54892622	     10.20635525	    -12.73367304	      0.00000000	      0.00000000	    -49.63150632	      0.65100235	    -18.00587845	     47.90699177	     -9.26865991	     28.69896472	     82.13162969	     51.72265601	      0.00000000	      0.00000000	     33.95158964	    -32.72958489	     14.02076310	     91.51187980	     52.75197996	      0.00000000	      0.00000000
      5.04500000	    -31.53184654	      8.67880495	      6.94259652	      0.34715002	      1.10563417	     -0.21588448	      0.00000000	      0.50000000	      0.00000000	      0.25000000	     40.13087910	    -13.74269752	      5.12185591	     41.05877708	      0.71661085	    -38.92634040	    -10.06256057	      0.00000000	      0.00000000	     78.27416749	      4.27265502	     -5.22008204	     86.28163276	      1.50589858	     10.64360288	    -12.14680748	      0.00000000	      0.00000000	    -49.69705221	      1.42287454	    -19.06436936	     49.07746655	     -7.70836233	     29.98357593	     80.77185345	     51.71812328	      0.00000000	      0.00000000	     30.70842517	    -33.22008794	      9.80094911	     94.11255324	     52.81405222	      0.00000000	      0.00000000
      5.05000000	    -31.21960444	      8.20707973	      6.84683693	      0.34652833	      1.10688657	     -0.21625740	      0.00000000	      0.50000000	      0.00000000	      0.25000000	     40.81764530	    -13.11786511	      5.48156173	     43.56422202	      0.76033911	    -38.86455885	    -10.36984217	      0.00000000	      0.00000000	     76.84182721	      3.89456534	     -5.15559413	     83.66820309	      1.46028562	     10.63533579	    -11.69824939	      0.00000000	      0.00000000	    -50.11803835	      2.09032285	    -18.74661592	     49.56613373	     -7.49713539	     29.96901903	     80.80134874	     51.71963582	      0.00000000	      0.00000000	     30.69655326	    -33.27279982	      9.68916353	     94.11155152	     52.80378406	      0.00000000	      0.00000000
      5.05500000	    -31.02242522	      7.74666740	      6.61755487	      0.34628972	      1.10757900	     -0.21654290	      0.00000000	      0.50000000	      0.00000000	      0.25000000	     41.62182961	    -12.40397298	      5.87432888	     46.08053113	      0.80425699	    -38.73578839	    -10.99656657	      0.00000000	      0.00000000	     75.41811048	      3.36799289	     -5.16142562	     80.99776556	      1.41367770	     10.66667426	    -11.09721506	      0.00000000	      0.00000000	    -50.40026655	      2.61707499	    -18.39545328	     49.93129535	     -7.31865185	     30.04446531	     80.81830082	     51.73135393	      0.00000000	      0.00000000	     30.57304431	    -33.29308974	      9.40580659	     94.19755741	     52.79230245	      0.00000000	      0.00000000
      5.06000000	    -30.87852865	      7.31561772	      6.38043842	      0.34608337	      1.10791186	     -0.21687195	      0.00000000	      0.50000000	      0.00000000	      0.25000000	     42.53833384	    -11.71486746	      6.25026172	     48.70520931	      0.85006627	    -38.54194703	    -11.68530498	      0.00000000	      0.00000000	     73.98901419	      2.83209896	     -5.22948906	     78.27070335	      1.36608148	     10.65143288	    -10.32371334	      0.00000000	      0.00000000	    -50.58823470	      3.09162496	    -18.08231801	     50.24982425	     -7.17053211	     30.21996748	     80.84055534	     51.75778785	      0.00000000	      0.00000000	     30.26446883	    -33.22706210	      8.88271809	     94.43465830	     52.78472458	      0.00000000	      0.00000000
      5.06500000	    -30.74638240	      6.53358653	      6.16833595	      0.34589167	      1.10801489	     -0.21760623	      0.00000000	      0.50000000	      0.00000000	      0.25000000	     43.36653357	    -10.81868904	      6.26315662	     51.11799444	      0.89217731	    -38.35479081	    -11.89883084	      0.00000000	      0.00000000	     72.58749714	      2.27353897	     -4.91347686	     75.49772489	      1.31768388	     10.36820762	     -9.81744642	      0.00000000	      0.00000000	    -50.72648952	      3.87597447	    -17.40069863	     50.36922913	     -7.04437344	     30.32319252	     80.84066532	     51.76827791	      0.00000000	      0.00000000	     29.96788838	    -33.18145957	      8.75261668	     94.47864066	     52.78403030	      0.00000000	      0.00000000
      5.07000000	    -30.69685345	      6.18176945	      5.99722280	      0.34565265	      1.10739562	     -0.21798671	      0.00000000	      0.50000000	      0.00000000	      0.25000000	     44.52549706	    -10.33476876	      6.34836309	     54.11275159	      0.94444568	    -37.60040132	    -12.88284590	      0.00000000	      0.00000000	     71.20947003	      1.84056757	     -5.05707780	     72.77344327	      1.27013619	     10.09588680	     -8.92858954	      0.00000000	      0.00000000	    -50.76868896	      4.22630159	    -17.21458247	     50.74098793	     -6.99511870	     30.55121069	     81.01075347	     51.82096925	      0.00000000	      0.00000000	     29.47417156	    -32.86446121	      8.22350797	     94.79511417	     52.79122652	      0.00000000	      0.00000000
      5.07500000	    -30.62433307	      5.83051076	      5.66240826	      0.34552006	      1.10670859	     -0.21828668	      0.00000000	      0.50000000	      0.00000000	      0.25000000	     45.67037082	     -9.76306677	      6.60103225	     56.95881380	      0.99411884	    -36.81547741	    -13.10936087	      0.00000000	      0.00000000	     69.72044348	      1.32174383	     -5.30335886	     69.94908804	      1.22084190	      9.55923670	     -8.52134351	      0.00000000	      0.00000000	    -50.91373293	      4.60926162	    -17.42982098	     51.24298869	     -6.72268770	     31.69998136	     81.14798477	     51.98557156	      0.00000000	      0.00000000	     27.60487250	    -32.47163829	      5.52886164	     96.20717444	     52.78732857	      0.00000000	      0.00000000
